PathFileType	4	(X/Y/Z)	C:\Documents and Settings\rtobon\Desktop\NewMocap\New\NoT\ActorF_TPose.trc
DataRate	CameraRate	NumFrames	NumMarkers	Units	OrigDataRate	OrigDataStartFrame	OrigNumFrames
120.00	120.00	       4	49	mm	120.00	98	       260
Frame#	Time	Root			LtFtHip			LtBkHip			RtFtHip			RtBkHip			Spine1			Spine2			Spine3			SpineOffsetLow			SpineOffsetHigh			LtCtChest			RtCtChest			LtChest			RtChest			LtShoulder			LtBicep			LtElbow			LtForeArm			LtWrist			LtPinky			LtThumb			LtMiddFing			RtShoulder			RtBicep			RtElbow			RtForeArm			RtWrist			RtPinky			RtThumb			RtMiddFing			LtThigh			LtKnee			LtCalf			LtAnkle			LtHeel			LtBall			LtToe			RtThigh			RtKnee			RtCalf			RtAnkle			RtHeel			RtBall			RtToe			TopHead			LfFtHead			LtBkHead			RtFtHead			RtBkHead			
		X1	Y1	Z1	X2	Y2	Z2	X3	Y3	Z3	X4	Y4	Z4	X5	Y5	Z5	X6	Y6	Z6	X7	Y7	Z7	X8	Y8	Z8	X9	Y9	Z9	X10	Y10	Z10	X11	Y11	Z11	X12	Y12	Z12	X13	Y13	Z13	X14	Y14	Z14	X15	Y15	Z15	X16	Y16	Z16	X17	Y17	Z17	X18	Y18	Z18	X19	Y19	Z19	X20	Y20	Z20	X21	Y21	Z21	X22	Y22	Z22	X23	Y23	Z23	X24	Y24	Z24	X25	Y25	Z25	X26	Y26	Z26	X27	Y27	Z27	X28	Y28	Z28	X29	Y29	Z29	X30	Y30	Z30	X31	Y31	Z31	X32	Y32	Z32	X33	Y33	Z33	X34	Y34	Z34	X35	Y35	Z35	X36	Y36	Z36	X37	Y37	Z37	X38	Y38	Z38	X39	Y39	Z39	X40	Y40	Z40	X41	Y41	Z41	X42	Y42	Z42	X43	Y43	Z43	X44	Y44	Z44	X45	Y45	Z45	X46	Y46	Z46	X47	Y47	Z47	X48	Y48	Z48	X49	Y49	Z49	

98	0.808	15.09076	1102.56067	1289.56567	107.03261	1011.13013	1565.69434	110.03022	1069.72803	1290.44031	-162.22510	1032.04846	1533.57788	-112.74035	1069.42041	1273.10657	18.53170	1276.73816	1282.40125	19.39286	1411.52258	1286.89001	9.46234	1529.92456	1341.31653	-65.90271	1197.24280	1281.10950	148.09253	1355.76685	1291.50708	19.67401	1375.74927	1596.01453	-30.32658	1401.49756	1584.40833	101.52118	1450.23291	1570.65491	-100.75640	1449.52319	1560.13989	167.05794	1542.98914	1405.67834	339.08755	1517.47168	1443.96423	491.89517	1494.04602	1414.73450	598.41339	1482.61450	1466.60632	736.09680	1464.53455	1488.70215	789.71606	1408.90869	1453.89868	760.80060	1441.87756	1562.51721	793.28430	1460.37915	1494.73621	-164.90599	1553.69861	1435.35486	-342.70334	1505.65698	1413.14697	-445.58102	1489.90137	1398.35950	-595.37067	1474.80115	1440.33801	-711.36774	1458.91089	1451.86096	-776.47229	1410.36145	1428.99060	-755.89496	1454.96887	1527.72339	-785.08636	1461.11987	1462.14172	213.40401	738.35657	1471.18677	202.87576	578.34839	1419.86328	224.89468	337.85855	1350.56885	201.15669	147.97778	1340.89343	133.10843	51.57348	1269.94006	222.39435	54.75697	1444.32397	173.24393	46.41797	1542.75269	-255.95300	777.60114	1458.82495	-249.05949	551.71985	1433.52209	-270.65564	403.97516	1376.16663	-247.67937	151.87080	1351.67212	-173.79872	52.43211	1263.94409	-276.98169	53.38464	1437.66797	-222.41154	54.33087	1529.11963	-14.00649	1780.69714	1469.29541	52.11218	1714.37769	1598.85876	73.56276	1655.83484	1421.23950	-69.55038	1701.86841	1585.25256	-74.80913	1637.60950	1412.09363	
99	0.817	15.09076	1102.56067	1289.56567	107.05247	1011.15161	1565.66333	110.03022	1069.72803	1290.44031	-162.23697	1032.00623	1533.59436	-112.68532	1069.41724	1273.16394	18.80999	1276.61267	1282.63269	19.35205	1411.42297	1287.04248	9.46234	1529.92456	1341.31653	-65.89957	1197.31702	1280.86829	148.06462	1355.69800	1291.66431	19.73950	1375.70715	1595.99304	-30.27069	1401.40747	1584.31396	101.61900	1450.13513	1570.53638	-100.68861	1449.52405	1560.25598	167.18788	1543.08411	1405.57751	339.10062	1517.49072	1443.94580	491.95087	1494.01965	1414.58582	598.52704	1482.71704	1466.59021	736.11334	1464.62061	1488.06323	789.54248	1409.24023	1454.00635	760.71765	1441.95874	1562.32422	793.34973	1460.27991	1494.45386	-164.89359	1553.59216	1435.31238	-342.83792	1505.55737	1413.13477	-445.66492	1489.79114	1398.30029	-595.36609	1474.66577	1440.32458	-711.22223	1458.63049	1451.67432	-776.35962	1410.17639	1428.98010	-755.99530	1454.76794	1527.52576	-785.06970	1460.51709	1461.61511	213.44789	738.35406	1471.20740	202.92805	578.36566	1419.86377	224.90457	337.92197	1350.53223	200.95062	147.81946	1340.87524	133.05296	51.48815	1270.10706	222.49640	54.81518	1444.26978	173.24211	46.37641	1542.81348	-255.95300	777.60114	1458.82495	-249.00578	551.75378	1433.44385	-270.72495	403.95203	1376.30176	-247.67937	151.87080	1351.67212	-173.78816	52.46717	1263.89832	-277.06934	53.30369	1437.70325	-222.41154	54.33087	1529.11963	-13.97355	1780.75916	1469.32996	52.08193	1714.36719	1598.81726	73.56276	1655.83484	1421.23950	-69.58822	1701.99670	1585.12195	-74.77959	1637.61719	1412.13477	
100	0.825	15.09076	1102.56067	1289.56567	107.15013	1010.92950	1565.48682	110.17963	1069.92871	1290.53284	-162.14613	1031.92261	1533.44641	-112.68532	1069.41724	1273.16394	18.70249	1276.65405	1282.45361	19.39286	1411.52258	1286.89001	9.46234	1529.92456	1341.31653	-65.81790	1197.17188	1280.80408	148.05894	1355.69751	1291.88721	19.73950	1375.70715	1595.99304	-30.24728	1401.33386	1584.29395	101.65614	1450.08850	1570.45398	-100.70154	1449.46472	1560.11597	167.04716	1542.92578	1405.60474	339.11194	1517.50916	1443.91382	491.93436	1494.02087	1414.58032	598.43555	1482.67065	1466.24158	736.12250	1464.62903	1487.89832	789.54071	1409.25806	1453.58911	760.75012	1441.99646	1562.19849	793.40302	1460.55200	1494.47131	-164.87949	1553.50427	1435.26147	-342.90872	1505.43896	1413.12756	-445.68427	1489.73169	1398.32251	-595.35864	1474.56836	1440.12549	-711.32751	1457.89575	1451.24048	-776.33691	1409.84326	1428.54736	-756.04376	1454.16589	1527.13074	-785.07922	1460.41077	1461.51624	213.46016	738.38684	1471.15613	202.92805	578.36566	1419.86377	224.87212	337.81088	1350.50183	201.37941	148.14789	1340.70886	133.19020	51.58103	1270.04187	222.37801	54.88306	1444.25586	173.24393	46.41797	1542.75269	-255.78650	777.54865	1458.75952	-248.93652	551.78992	1433.36353	-270.44962	403.55038	1375.87073	-247.67937	151.87080	1351.67212	-173.78816	52.46717	1263.89832	-277.10721	53.42694	1437.71289	-222.41154	54.33087	1529.11963	-14.00870	1780.75964	1469.22131	52.21056	1714.62500	1598.69104	73.56276	1655.83484	1421.23950	-69.58825	1702.01782	1585.27527	-74.94853	1637.67273	1412.19617	
101	0.833	15.09076	1102.56067	1289.56567	107.15013	1010.92950	1565.48682	110.13469	1069.80994	1290.49194	-162.02548	1031.93933	1533.42554	-112.77008	1069.37170	1272.97144	18.80999	1276.61267	1282.63269	19.45516	1411.43835	1286.89600	9.39537	1529.86853	1341.26318	-65.90108	1197.28052	1280.73267	148.09253	1355.76685	1291.50708	19.79665	1375.68823	1595.96082	-30.28952	1401.26038	1584.21167	101.70417	1449.91711	1570.23071	-100.68178	1449.39038	1560.16724	167.08240	1542.91187	1405.49121	339.12863	1517.55066	1443.92261	491.99298	1494.07727	1414.50549	598.48138	1482.86292	1466.28674	736.15466	1464.75476	1487.84534	789.35510	1409.45117	1453.61377	761.06805	1442.06274	1562.07373	793.50311	1460.69275	1494.29675	-164.84479	1553.45776	1435.26538	-342.87079	1505.32178	1413.05505	-445.62399	1489.44080	1398.06519	-595.41064	1474.40857	1440.06799	-711.53156	1457.78833	1451.15149	-776.30994	1409.36218	1428.30823	-756.12189	1454.06750	1527.16394	-785.16821	1460.20081	1461.49097	213.50412	738.32239	1471.12341	202.92805	578.36566	1419.86377	225.21487	338.25000	1350.79846	201.23953	147.98076	1340.95593	133.03505	51.65014	1270.12927	222.44534	54.84000	1444.26892	173.15097	46.35503	1542.78662	-255.83911	777.43774	1458.66968	-248.62985	551.70074	1433.21375	-270.63718	403.80573	1375.96814	-247.77016	152.02698	1351.72571	-173.75288	52.48339	1263.86292	-276.92996	53.52666	1437.86487	-222.41154	54.33087	1529.11963	-14.03003	1780.84180	1469.25317	52.17760	1714.62427	1598.51733	73.57246	1655.86853	1421.18506	-69.64977	1702.13464	1585.23779	-74.87287	1637.65369	1412.22351	
